<svg width="420" height="443" viewBox="0 0 420 443" fill="none" xmlns="http://www.w3.org/2000/svg">
<path d="M149.464 306.158C165.536 287.523 177.857 266.225 187.5 242.264C197.678 215.11 202.5 187.422 202.5 157.605C202.5 128.32 197.678 100.1 187.5 73.478C176.786 46.3231 162.857 22.8953 144.107 2.66225C143.571 1.59735 142.5 1.0649 141.964 0L0 157.605L149.464 306.158Z" transform="translate(217.5 63.8965)" fill="#0E7935"/>
<path d="M0 0C1.07143 27.6874 5.89285 53.7774 16.0714 79.335C26.25 105.957 40.7143 129.385 59.4643 149.618C77.6785 170.384 99.6428 186.357 125.357 198.604C151.071 210.318 179.464 216.174 210.536 216.174C241.071 216.174 268.928 210.318 294.643 198.604C319.821 186.89 341.786 170.916 360 151.216L207.857 0H0Z" transform="translate(0 226.821)" fill="#955A3C"/>
<path d="M211.071 0C180 0 151.607 5.85694 125.893 18.1033C100.179 29.8172 78.2142 45.7907 59.4643 66.0237C40.7143 86.2568 26.25 109.685 16.0714 136.307C5.89285 161.865 1.07143 188.487 0 216.174H207.857L351.964 56.4396C335.893 40.9986 316.607 27.6874 295.178 18.1033C269.464 5.85694 241.607 0 211.071 0Z" fill="#FFB900"/>
</svg>
